<?xml version="1.0" standalone="no"?>
<!DOCTYPE svg PUBLIC "-//W3C//DTD SVG 20010904//EN"
 "http://www.w3.org/TR/2001/REC-SVG-20010904/DTD/svg10.dtd">
<svg version="1.0" xmlns="http://www.w3.org/2000/svg"
 width="1080.000000pt" height="1080.000000pt" viewBox="0 0 1080.000000 1080.000000"
 preserveAspectRatio="xMidYMid meet">
<metadata>
Created by potrace 1.16, written by Peter Selinger 2001-2019
</metadata>
<g transform="translate(0.000000,1080.000000) scale(0.100000,-0.100000)"
fill="#000000" stroke="none">
<path d="M5179 9217 c-119 -188 -216 -343 -214 -345 1 -2 46 8 99 21 53 14 97
22 99 18 7 -15 1 -901 -7 -908 -4 -4 -72 -8 -150 -8 l-143 0 -36 32 c-20 18
-56 37 -78 43 -161 44 -300 -132 -224 -281 29 -56 114 -109 175 -109 37 0 93
24 126 52 36 32 36 32 157 32 l122 1 3 -132 c3 -133 3 -133 -20 -133 -42 0
-311 58 -435 94 -119 34 -153 47 -223 87 -141 78 -314 -74 -256 -224 23 -60
74 -107 133 -122 l48 -12 13 -59 c37 -176 -54 -353 -216 -415 -70 -27 -223
-30 -287 -7 -35 13 -41 20 -47 56 -14 81 -64 142 -136 162 -57 15 -83 12 -140
-16 -114 -57 -141 -188 -61 -299 36 -50 75 -200 81 -307 4 -78 -4 -102 -17
-50 -3 15 -29 81 -57 147 -110 259 -112 325 -24 680 14 55 24 101 22 102 -6 7
-133 -92 -195 -151 -211 -202 -280 -439 -186 -645 14 -29 25 -55 25 -57 0 -2
-15 -4 -32 -4 -145 -2 -219 -123 -172 -280 15 -52 15 -54 -7 -94 -29 -52 -30
-124 -2 -188 20 -44 21 -92 2 -104 -5 -3 -24 6 -42 20 -34 26 -177 96 -196 96
-6 0 18 -59 54 -130 76 -152 117 -253 135 -330 6 -30 14 -62 16 -70 3 -10 -18
-30 -60 -58 -153 -101 -261 -302 -287 -537 -10 -96 -15 -114 -39 -142 -36 -41
-44 -94 -26 -163 13 -50 13 -57 -3 -80 -28 -39 -33 -75 -16 -124 12 -35 13
-50 4 -70 -18 -39 3 -96 51 -140 32 -29 40 -43 40 -71 0 -19 -4 -35 -10 -35
-5 0 -44 14 -86 30 -42 17 -78 29 -81 27 -2 -2 21 -53 51 -113 133 -265 281
-385 476 -385 41 0 98 7 125 15 28 9 50 16 51 16 0 0 -5 -25 -13 -55 -10 -39
-11 -65 -5 -89 l10 -34 -41 -6 c-61 -10 -151 -63 -212 -123 -67 -67 -73 -83
-45 -128 31 -50 59 -53 152 -20 119 42 180 35 333 -37 127 -60 184 -80 279
-98 49 -10 56 -14 41 -22 -24 -14 -103 4 -231 53 -166 65 -259 72 -356 30 -47
-20 -92 -61 -113 -101 -19 -37 -49 -150 -42 -157 4 -3 44 9 89 28 62 25 98 34
144 34 54 0 67 -4 115 -38 30 -20 79 -58 109 -83 140 -117 261 -130 461 -50
46 18 94 37 107 40 l22 7 0 -138 c0 -129 2 -143 26 -191 28 -56 71 -90 127
-99 32 -5 108 7 150 22 15 6 17 -1 17 -78 0 -84 1 -86 33 -113 79 -67 196 -80
357 -39 24 6 27 2 44 -49 33 -97 101 -157 193 -172 48 -7 138 14 231 55 37 16
69 28 73 25 3 -2 64 -147 135 -324 71 -176 131 -320 134 -320 3 0 64 144 135
321 71 176 132 322 136 325 4 2 36 -9 71 -26 167 -78 274 -75 358 9 33 33 53
64 65 102 10 30 19 55 20 56 1 2 35 -4 76 -13 128 -27 249 -6 312 53 25 25 27
32 27 111 0 76 2 83 17 77 42 -16 118 -27 151 -22 53 9 107 50 131 99 18 39
21 62 21 186 0 95 4 142 11 142 6 0 53 -18 106 -40 161 -67 265 -74 369 -26
27 13 89 56 139 96 142 115 171 121 321 64 53 -19 98 -33 101 -30 11 11 -29
135 -57 179 -20 32 -43 52 -82 70 -103 50 -204 45 -359 -17 -109 -44 -206 -69
-237 -61 -34 8 -27 12 59 29 84 18 150 43 284 107 121 58 190 63 305 23 94
-32 123 -28 153 23 25 43 17 63 -49 129 -57 56 -145 108 -206 119 l-36 7 1 51
c1 29 -2 68 -6 89 l-8 36 48 -14 c65 -20 186 -20 247 1 96 33 187 106 262 210
43 62 149 263 142 271 -3 2 -39 -10 -82 -26 -42 -17 -81 -30 -86 -30 -5 0 -8
16 -6 35 2 24 16 48 44 79 48 52 59 85 44 133 -8 27 -7 42 5 70 17 42 11 90
-16 125 -18 23 -19 27 -4 80 19 69 12 118 -26 161 -25 28 -30 44 -36 117 -21
243 -135 463 -293 564 -57 37 -61 41 -55 70 15 84 70 226 138 361 41 82 75
150 75 152 0 17 -161 -57 -211 -97 l-36 -29 -11 36 c-9 30 -8 42 8 72 10 20
21 58 25 84 6 40 3 56 -19 101 -27 54 -27 55 -10 105 24 74 16 159 -20 205
-33 44 -72 65 -135 73 l-48 5 28 73 c79 204 26 405 -160 599 -60 62 -219 191
-227 184 -2 -2 8 -46 21 -98 84 -324 84 -430 4 -621 -17 -41 -47 -114 -65
-164 l-35 -90 5 105 c5 121 40 248 86 312 127 176 -93 395 -269 267 -46 -33
-69 -72 -79 -132 -7 -38 -12 -43 -47 -56 -22 -7 -80 -14 -130 -14 -72 -1 -103
3 -153 22 -161 61 -250 220 -222 397 13 80 15 84 42 84 41 0 109 42 136 83 38
58 38 146 -1 205 -57 86 -178 108 -265 48 -24 -16 -95 -43 -179 -67 -132 -38
-406 -99 -448 -99 -19 0 -20 6 -17 136 l3 137 119 -5 c116 -5 120 -6 154 -36
96 -84 243 -55 300 60 31 61 33 108 7 163 -59 127 -206 162 -308 72 l-36 -32
-143 0 c-78 0 -146 3 -150 7 -5 6 -10 713 -5 879 l1 37 96 -25 c53 -13 98 -23
99 -21 4 4 -428 687 -435 687 -3 0 -102 -154 -221 -342z m354 -9 c70 -110 126
-203 124 -205 -2 -1 -18 4 -36 13 -74 37 -152 16 -196 -54 -11 -17 -22 -31
-25 -31 -3 0 -14 14 -25 31 -45 70 -122 91 -195 53 -17 -9 -34 -15 -36 -13 -4
5 249 407 256 407 3 0 62 -90 133 -201z m24 -311 c0 -41 -2 -78 -6 -83 -3 -5
-66 -38 -139 -74 -74 -36 -138 -71 -144 -77 -6 -7 -14 -11 -18 -8 -8 5 -8 162
0 167 3 2 34 18 70 35 46 24 66 29 71 21 9 -14 11 -12 26 16 10 18 122 85 134
80 3 -2 6 -37 6 -77z m0 -190 c0 -41 -2 -78 -6 -83 -3 -5 -57 -34 -120 -64
-63 -30 -129 -65 -147 -77 -39 -26 -49 -17 -40 33 5 21 13 34 23 34 18 0 260
127 268 141 4 5 1 9 -5 9 -15 0 -232 -109 -252 -127 -9 -8 -22 -12 -27 -8 -12
7 -14 45 -3 60 4 6 68 41 142 79 74 38 139 72 144 77 18 16 23 -1 23 -74z m1
-184 c0 -78 -5 -103 -20 -103 -15 0 -249 -119 -269 -136 -19 -17 -29 -9 -29
22 0 33 10 54 27 54 18 0 260 127 268 141 4 5 1 9 -6 9 -16 0 -229 -108 -251
-127 -21 -19 -38 -9 -38 22 0 31 2 33 155 111 72 36 134 70 139 75 18 16 23
-1 24 -68z m0 -190 c0 -83 -5 -103 -25 -103 -9 0 -36 -12 -60 -26 -25 -14 -46
-24 -48 -22 -2 2 -6 15 -10 30 -6 25 -3 29 53 57 33 17 63 35 67 41 11 18 -21
11 -69 -16 -25 -14 -50 -23 -55 -20 -5 4 -13 0 -18 -7 -4 -8 -28 -25 -53 -37
-25 -12 -53 -29 -62 -37 -9 -8 -22 -12 -27 -8 -12 7 -14 45 -3 60 4 6 68 41
142 79 74 38 139 73 144 77 18 16 23 -1 24 -68z m-174 -140 c-10 -40 -11 -41
-64 -68 -27 -14 -51 -29 -55 -35 -11 -17 28 -11 63 10 35 22 40 14 18 -29 -17
-32 -82 -85 -95 -77 -5 3 -8 38 -6 78 3 99 3 98 23 98 9 0 35 11 57 24 55 33
67 33 59 -1z m73 -166 c62 -89 182 -123 391 -113 l134 7 32 34 c54 57 109 59
169 6 28 -26 32 -36 32 -80 0 -41 -5 -55 -29 -80 -53 -56 -132 -50 -180 12
l-24 30 -178 1 c-167 1 -182 -1 -229 -22 -27 -13 -65 -37 -83 -55 -38 -36 -82
-116 -82 -147 0 -12 -4 -18 -10 -15 -5 3 -10 14 -10 23 0 56 -87 159 -164 194
-47 21 -63 23 -228 22 l-176 -1 -34 -36 c-56 -58 -115 -61 -169 -8 -50 51 -50
111 0 162 53 53 113 50 167 -6 l32 -34 129 -7 c256 -13 390 43 433 184 6 20
14 44 17 52 3 8 11 -6 18 -33 7 -27 25 -67 42 -90z m-161 -283 c57 -56 86
-136 88 -239 1 -58 -2 -80 -11 -79 -7 1 -51 2 -98 3 l-85 1 0 189 0 189 32
-11 c18 -7 51 -30 74 -53z m324 -124 c0 -98 -3 -181 -7 -183 -5 -3 -51 -7
-103 -8 l-95 -4 1 70 c0 80 24 163 62 218 26 38 118 101 134 91 4 -3 8 -86 8
-184z m-1203 -24 c46 -38 359 -125 608 -168 176 -30 551 -33 720 -5 259 43
590 133 638 173 49 41 128 29 160 -26 28 -46 22 -87 -18 -127 -33 -33 -39 -35
-84 -30 l-48 6 -18 -57 c-24 -74 -31 -226 -15 -303 23 -107 113 -209 238 -271
56 -28 76 -32 169 -36 111 -5 183 6 260 39 l43 18 -6 44 c-16 114 111 181 189
99 46 -49 48 -106 3 -159 -28 -33 -71 -157 -87 -250 -17 -94 -5 -293 25 -452
133 -689 99 -1206 -105 -1631 -137 -284 -328 -507 -602 -703 -45 -32 -115 -92
-155 -133 -92 -91 -176 -148 -329 -220 -288 -136 -330 -158 -411 -210 -47 -31
-109 -80 -139 -110 l-53 -54 -58 58 c-96 96 -165 136 -554 320 -138 65 -237
133 -317 216 -35 37 -93 88 -130 113 -392 277 -640 622 -745 1038 -56 224 -61
269 -60 590 0 322 5 370 79 780 34 189 34 337 1 466 -27 105 -46 151 -79 192
-33 43 -31 107 7 146 81 84 206 21 193 -96 -5 -44 -4 -45 37 -63 76 -32 149
-43 262 -38 101 4 114 7 174 39 88 47 173 128 207 197 26 54 28 65 28 187 0
100 -4 143 -19 187 l-18 57 -48 -6 c-42 -5 -50 -2 -81 25 -29 26 -34 37 -34
77 0 40 5 51 33 76 42 38 98 40 139 5z m-1061 -503 c-21 -64 -36 -165 -36
-238 0 -92 24 -182 85 -326 124 -293 148 -468 94 -699 -23 -100 -98 -258 -164
-350 -61 -82 -176 -220 -185 -220 -3 0 -14 26 -24 58 -10 31 -27 74 -38 95
l-19 39 25 36 c35 51 53 98 61 160 l7 52 -27 -10 c-49 -18 -92 -12 -114 16
-61 77 24 198 124 180 123 -23 151 -203 57 -366 -14 -25 -19 -39 -10 -33 26
22 66 106 78 166 23 115 -24 223 -110 248 -32 10 -48 9 -90 -5 -29 -10 -53
-16 -55 -14 -9 11 -33 68 -39 92 -17 69 47 124 130 112 96 -13 186 -82 227
-175 26 -60 32 -161 13 -231 -12 -45 -12 -52 -1 -36 8 10 21 51 30 90 13 59
14 84 5 140 -30 188 -156 302 -311 282 -47 -6 -50 -6 -60 21 -49 124 2 213
113 200 111 -14 233 -111 291 -235 30 -63 32 -73 32 -182 0 -63 -3 -133 -7
-155 l-8 -40 16 40 c22 57 29 201 15 277 -18 94 -70 193 -144 275 -129 143
-169 223 -169 343 0 88 26 175 79 265 38 65 134 188 141 181 2 -3 -3 -26 -12
-53z m4191 -87 c26 -38 57 -96 70 -128 75 -185 43 -324 -116 -502 -131 -145
-178 -268 -168 -431 3 -49 13 -110 21 -135 l15 -45 -7 45 c-4 25 -7 95 -7 155
0 103 2 114 32 178 58 122 185 222 298 235 47 5 98 -16 115 -47 13 -26 12 -97
-3 -141 l-12 -35 -80 0 c-91 -1 -138 -20 -191 -77 -44 -47 -60 -77 -79 -143
-21 -70 -17 -203 8 -255 l16 -35 -7 40 c-15 87 -7 180 22 238 56 115 193 189
290 157 36 -12 66 -51 66 -85 0 -20 -40 -115 -49 -115 -3 0 -26 7 -51 16 -55
19 -99 12 -141 -23 -43 -37 -59 -80 -59 -162 0 -79 25 -158 65 -206 24 -29 24
-27 -5 32 -75 152 -59 299 37 340 95 39 194 -43 169 -141 -13 -52 -66 -71
-131 -46 l-26 10 7 -53 c7 -60 36 -132 65 -163 l21 -22 -36 -90 c-20 -49 -36
-95 -36 -102 0 -20 -14 -8 -79 65 -282 317 -369 650 -259 995 11 36 45 124 74
197 74 181 87 243 81 373 -3 58 -12 128 -20 155 -8 28 -17 61 -21 75 -6 21 -2
19 29 -15 19 -22 57 -71 82 -109z m-4595 -1391 c72 -96 160 -273 184 -370 22
-90 22 -272 0 -374 -9 -40 -34 -139 -56 -219 -54 -195 -67 -295 -50 -390 14
-86 62 -187 121 -254 60 -70 75 -60 24 17 -118 180 -133 424 -31 486 37 23 75
24 120 5 43 -18 66 -51 66 -98 0 -54 -12 -78 -69 -135 -58 -59 -71 -86 -71
-151 0 -50 21 -95 68 -144 28 -30 56 -40 29 -10 -27 29 -57 105 -57 143 0 42
34 98 70 116 14 7 40 13 58 13 46 0 102 -55 102 -100 0 -46 -28 -98 -67 -124
l-33 -23 45 -42 c25 -23 45 -43 45 -45 0 -2 -44 -6 -97 -9 -54 -4 -147 -18
-208 -32 l-110 -26 -69 28 -69 27 -16 -24 c-27 -42 -50 -60 -75 -60 -37 0 -67
30 -73 75 -4 34 -1 44 21 65 19 17 38 24 66 25 54 0 33 17 -29 23 -57 5 -94
-12 -113 -54 -15 -33 -26 -30 -44 13 -14 33 -14 40 0 69 23 49 71 55 145 20
l56 -26 -33 29 c-41 35 -107 55 -135 39 -28 -15 -91 6 -116 39 -27 33 -26 49
0 64 17 9 25 7 42 -8 32 -28 77 -55 87 -51 5 2 -21 28 -58 59 -37 30 -76 72
-87 92 -19 35 -19 37 0 56 10 12 26 21 35 21 9 0 46 -38 82 -87 74 -98 282
-321 331 -354 18 -12 -11 23 -64 77 -218 226 -355 415 -374 517 -8 41 11 81
43 91 16 6 20 21 26 109 3 56 13 131 21 167 23 95 87 219 147 285 48 53 147
129 156 121 2 -3 -24 -45 -58 -95 -286 -426 -263 -797 74 -1184 73 -83 138
-134 75 -58 -165 200 -236 321 -285 486 -22 75 -26 110 -26 210 0 139 20 234
77 354 36 75 134 231 145 231 11 0 -10 -141 -52 -350 -73 -362 -57 -523 72
-736 52 -86 158 -214 176 -214 9 0 -6 26 -39 68 -139 173 -194 292 -217 464
-14 106 -3 212 47 448 70 329 55 534 -55 755 -34 70 -34 70 -7 45 15 -14 54
-61 87 -105z m4968 42 c-70 -150 -85 -220 -85 -402 1 -137 5 -179 29 -290 52
-239 58 -279 59 -400 0 -85 -5 -139 -17 -185 -35 -128 -111 -267 -213 -387
-30 -35 -39 -53 -29 -53 38 0 199 229 245 350 65 168 65 293 2 605 -22 110
-43 234 -47 275 l-6 75 37 -50 c81 -110 139 -229 171 -350 26 -100 24 -282 -5
-390 -40 -149 -138 -319 -281 -486 -55 -64 -22 -50 42 18 176 189 282 406 295
607 13 200 -44 377 -191 600 -36 55 -64 101 -63 103 2 1 31 -16 64 -40 154
-107 247 -296 260 -528 6 -102 7 -106 34 -121 56 -33 49 -93 -25 -218 -59
-100 -156 -220 -296 -364 -63 -65 -105 -114 -94 -108 36 19 283 282 351 374
68 92 77 96 113 53 21 -26 -12 -78 -90 -144 -36 -30 -67 -59 -69 -64 -5 -13
52 18 87 48 26 22 35 24 52 15 28 -15 25 -36 -9 -70 -34 -35 -74 -46 -106 -32
-30 14 -88 -1 -132 -35 -19 -14 -32 -27 -30 -29 1 -2 26 9 55 23 94 46 168 7
143 -77 -13 -43 -32 -62 -40 -39 -2 7 -17 27 -33 43 -26 26 -34 28 -84 24 -66
-6 -91 -23 -34 -23 78 -1 117 -79 69 -139 -34 -44 -85 -33 -123 27 -10 15 -23
27 -28 27 -6 0 -36 -12 -68 -26 l-57 -26 -119 27 c-66 15 -161 29 -212 32
l-93 6 45 46 46 47 -31 18 c-40 24 -73 96 -65 140 10 52 48 81 108 81 44 0 53
-4 84 -37 28 -31 34 -45 34 -82 0 -48 -12 -83 -43 -129 -19 -28 -18 -45 1 -33
20 12 72 101 83 138 16 60 -3 107 -71 182 -64 71 -76 97 -67 154 10 63 84 105
153 88 69 -18 113 -119 99 -229 -11 -85 -54 -205 -100 -273 -51 -76 -36 -86
24 -17 57 64 109 174 123 257 15 93 0 208 -51 391 -59 212 -73 287 -72 415 0
94 4 131 25 203 29 98 79 203 137 289 40 58 136 178 144 178 2 0 -14 -37 -35
-83z m-4451 -662 c18 -119 68 -317 108 -425 128 -342 363 -644 677 -866 45
-32 115 -93 158 -135 103 -104 225 -181 430 -274 95 -43 193 -90 218 -105 l45
-26 3 -130 3 -129 -65 -32 -64 -32 -4 60 c-4 51 -9 64 -38 94 -51 53 -120 71
-207 57 -37 -7 -78 -15 -90 -18 -21 -6 -23 -3 -23 33 0 22 -10 59 -23 83 -31
59 -81 84 -168 84 l-67 0 19 35 c26 50 32 91 20 138 -24 89 -87 144 -167 147
-41 2 -48 7 -97 64 -134 157 -311 266 -516 318 -53 14 -104 33 -114 42 -17 18
-17 20 8 73 27 59 30 94 15 151 -11 38 -72 101 -109 113 -19 6 -20 11 -15 60
9 74 -2 120 -38 161 -44 50 -83 67 -156 68 -58 1 -63 3 -57 21 65 232 88 386
76 515 l-8 75 74 89 c41 48 91 113 111 144 l37 55 6 -214 c4 -118 12 -250 18
-294z m3936 435 c25 -35 72 -95 105 -135 l61 -71 3 -170 c2 -159 4 -177 39
-308 20 -76 37 -139 37 -140 0 0 -28 -1 -63 -2 -71 -1 -113 -19 -150 -63 -37
-44 -51 -95 -44 -161 6 -57 6 -58 -23 -70 -42 -17 -87 -72 -100 -121 -13 -49
-6 -97 22 -152 19 -39 19 -40 1 -58 -10 -10 -62 -30 -117 -44 -192 -50 -339
-137 -482 -288 -81 -85 -89 -91 -130 -93 -126 -5 -212 -167 -146 -278 12 -20
22 -40 22 -42 0 -3 -17 -3 -38 1 -117 20 -222 -61 -222 -171 0 -33 -2 -36 -22
-30 -80 22 -160 28 -201 17 -88 -27 -137 -85 -137 -166 l0 -45 -60 30 c-33 17
-60 36 -60 43 0 6 -1 66 -2 132 l-2 120 120 60 c65 33 163 80 216 103 135 61
264 148 356 239 43 43 126 112 183 154 448 329 700 771 769 1353 6 49 11 165
12 258 0 93 2 167 5 165 2 -3 24 -33 48 -67z m-3806 -1571 c100 -23 229 -82
315 -143 135 -96 267 -268 329 -426 49 -127 52 -117 -67 -182 -58 -32 -107
-58 -110 -58 -2 0 -12 24 -22 53 -21 66 -79 182 -111 224 -34 45 -83 73 -127
73 l-36 0 7 -60 c7 -75 -10 -100 -69 -100 -110 0 -153 132 -67 204 39 33 65
39 137 34 103 -8 189 -69 253 -183 17 -31 34 -54 36 -51 12 12 -47 106 -102
161 -96 98 -202 134 -290 100 -67 -25 -96 -70 -120 -187 -6 -33 -49 -58 -100
-58 -27 0 -44 8 -66 29 -94 95 54 283 253 322 177 34 352 -69 457 -270 23 -45
46 -79 51 -76 20 12 -55 157 -118 227 -99 110 -203 153 -352 146 -118 -6 -190
-32 -259 -94 -29 -26 -62 -69 -77 -101 -21 -42 -36 -59 -63 -70 -60 -25 -131
-2 -146 48 -12 37 23 125 70 177 89 99 239 148 424 139 58 -3 117 -8 131 -12
18 -4 14 0 -12 14 -53 30 -155 42 -248 30 -108 -13 -179 -33 -305 -85 -169
-70 -223 -86 -297 -86 -85 -1 -154 31 -239 110 -67 61 -162 179 -138 170 71
-27 190 -59 260 -68 103 -14 185 -7 359 32 228 50 301 53 459 17z m4041 -14
c85 -19 191 -37 235 -40 94 -8 220 11 334 50 41 14 76 25 78 25 10 0 -91 -121
-138 -166 -104 -97 -192 -130 -304 -112 -31 5 -122 35 -203 68 -165 66 -231
85 -342 99 -86 11 -193 0 -242 -25 -39 -20 -33 -25 17 -14 112 26 314 2 415
-50 92 -47 162 -134 176 -219 6 -36 3 -43 -24 -71 -33 -33 -66 -38 -120 -19
-24 8 -40 26 -64 71 -39 74 -112 140 -186 170 -48 19 -76 23 -173 23 -113 0
-116 -1 -191 -38 -94 -46 -172 -126 -223 -231 -54 -108 -40 -132 15 -26 59
111 144 199 236 242 130 61 283 40 406 -57 96 -75 126 -178 69 -236 -34 -34
-74 -38 -126 -13 -24 11 -35 24 -39 45 -3 16 -9 42 -12 58 -3 17 -18 48 -34
69 -77 106 -238 88 -365 -42 -49 -51 -112 -152 -102 -163 3 -2 13 10 22 29 48
94 131 173 209 198 51 16 129 14 165 -5 120 -61 94 -225 -36 -225 -59 0 -78
29 -69 105 l6 55 -38 0 c-75 0 -139 -69 -208 -227 -19 -43 -34 -86 -34 -95 0
-33 -21 -28 -122 28 -57 32 -105 59 -106 60 -9 6 31 117 71 199 126 256 358
441 628 499 142 30 201 27 419 -19z m-3371 -380 c37 -19 65 -77 57 -118 -7
-33 -41 -86 -49 -77 -3 3 -25 47 -49 98 -39 81 -43 94 -29 102 22 13 38 12 70
-5z m2333 3 c14 -12 10 -23 -29 -106 l-45 -94 -23 22 c-47 44 -39 118 16 165
34 28 57 31 81 13z m-2638 -219 l29 -56 -21 -44 c-18 -38 -21 -66 -24 -211
l-3 -167 -40 6 c-32 4 -65 -4 -165 -43 -108 -41 -135 -48 -200 -48 -90 -1
-120 13 -236 107 -43 36 -98 74 -121 86 -55 27 -144 28 -215 1 -28 -11 -53
-18 -55 -16 -12 12 56 68 105 86 82 32 171 23 337 -30 171 -56 243 -62 319
-27 49 23 156 115 156 135 0 4 -66 7 -148 7 -165 0 -234 15 -367 82 -200 100
-282 106 -460 38 -38 -15 65 82 113 106 77 38 154 37 297 -4 176 -51 231 -60
347 -55 113 5 183 26 260 78 23 16 48 28 53 27 6 -2 23 -28 39 -58z m2976 25
c147 -94 337 -100 592 -19 176 56 275 43 373 -47 31 -28 54 -52 53 -53 -2 -2
-34 7 -73 21 -77 26 -165 31 -230 13 -22 -6 -85 -33 -140 -59 -169 -81 -226
-95 -397 -95 -82 0 -148 -3 -148 -6 0 -18 113 -115 159 -137 73 -34 147 -27
316 29 115 37 141 43 225 43 79 1 102 -3 135 -21 41 -22 92 -69 84 -78 -3 -2
-29 4 -57 15 -66 25 -154 26 -207 1 -22 -10 -78 -48 -125 -85 -123 -98 -150
-111 -240 -110 -65 0 -89 5 -185 44 -81 33 -124 45 -162 45 l-53 0 -1 120 c-1
157 -6 202 -30 251 -16 34 -18 47 -9 70 14 37 50 94 58 94 4 0 32 -16 62 -36z
m-1688 -138 c36 -30 81 -74 101 -99 32 -38 37 -51 37 -96 l0 -51 -42 0 c-24 0
-70 -7 -103 -15 -33 -8 -63 -14 -67 -15 -5 0 -8 74 -8 165 0 91 4 165 8 165 4
0 38 -24 74 -54z m378 -111 c0 -91 -3 -165 -7 -165 -5 1 -35 7 -68 15 -33 8
-79 15 -102 15 l-43 0 0 48 c0 67 41 123 160 216 25 19 48 35 53 35 4 1 7 -73
7 -164z m-1151 125 c43 -12 60 -36 61 -82 0 -29 -15 -61 -33 -69 -1 0 -44 -4
-95 -8 -101 -8 -141 -27 -153 -72 -4 -13 -7 -135 -8 -270 l-1 -246 -80 -27
c-107 -35 -134 -34 -176 8 l-34 34 0 312 0 311 22 -15 c34 -24 60 -20 144 24
178 94 276 122 353 100z m1976 -5 c33 -9 114 -42 181 -75 128 -64 149 -69 180
-44 19 15 19 16 -1 9 -59 -21 -58 -21 -53 22 7 47 29 98 43 98 26 0 33 -79 34
-403 l2 -333 -36 -36 c-34 -34 -39 -35 -85 -30 -26 3 -75 16 -107 29 l-58 23
-5 261 c-6 321 -2 312 -162 324 -101 7 -128 23 -128 75 0 82 72 111 195 80z
m-1930 -259 c-22 -33 -92 -66 -139 -66 -74 0 -127 54 -103 107 13 30 48 41
145 46 47 2 88 9 95 16 20 20 22 -73 2 -103z m1870 84 c106 0 152 -37 123 -97
-34 -72 -151 -72 -225 0 -28 26 -33 38 -33 78 l0 48 35 -15 c19 -7 64 -14 100
-14z m-1538 -9 c76 -47 41 -140 -54 -141 -39 -1 -109 -34 -122 -59 -8 -14 -11
-114 -11 -302 1 -155 0 -283 -2 -284 -2 -2 -43 -15 -92 -29 -110 -32 -193 -34
-253 -5 l-43 21 0 339 0 339 33 -20 c65 -40 148 -20 227 54 56 52 97 75 165
92 73 18 116 16 152 -5z m1299 -15 c27 -13 74 -45 104 -71 87 -77 162 -95 228
-55 l32 20 0 -341 0 -340 -47 -21 c-58 -26 -153 -22 -265 12 l-78 23 0 284 c0
176 -4 292 -10 304 -14 25 -59 47 -122 59 -105 20 -132 99 -50 145 37 21 141
11 208 -19z m-618 -82 c55 -11 127 -39 253 -100 181 -87 236 -103 297 -81 l23
9 -3 -314 c-3 -312 -3 -314 -28 -363 -20 -39 -36 -55 -73 -74 -44 -22 -53 -23
-103 -12 -31 6 -95 28 -142 50 -141 63 -215 83 -333 88 -128 6 -216 -13 -374
-82 -58 -25 -130 -51 -160 -57 -49 -10 -58 -8 -102 13 -37 19 -53 35 -73 74
-25 49 -25 51 -28 363 l-4 314 24 -9 c61 -22 116 -7 297 81 239 115 350 137
529 100z m-638 -79 l0 -56 -46 -19 c-59 -26 -105 -25 -138 1 -21 17 -24 24
-16 40 14 26 62 49 102 49 18 0 47 9 63 19 17 11 31 20 33 20 1 1 2 -24 2 -54z
m1098 15 c68 0 128 -53 96 -84 -32 -32 -85 -33 -158 -2 -35 15 -36 16 -36 70
l0 56 33 -20 c17 -11 47 -20 65 -20z m-608 -1017 c0 -152 -2 -274 -5 -271 -9
9 -195 489 -195 503 0 15 97 39 178 44 l22 1 0 -277z m173 256 c30 -7 47 -16
47 -26 0 -15 -174 -464 -190 -493 -6 -9 -10 94 -10 263 l0 279 53 -7 c28 -3
73 -11 100 -16z"/>
<path d="M4596 7327 c-23 -364 -99 -528 -290 -622 -99 -49 -184 -65 -383 -72
l-171 -6 -6 -30 c-3 -16 -6 -59 -6 -96 0 -92 -25 -300 -60 -510 -47 -285 -62
-440 -63 -651 0 -219 16 -362 63 -545 156 -620 685 -1092 1540 -1375 83 -27
163 -50 177 -50 74 0 456 141 662 244 275 138 447 259 637 450 343 344 487
720 488 1271 0 226 -9 318 -64 665 -42 260 -60 421 -60 535 0 39 -4 75 -8 81
-4 7 -70 13 -177 17 -260 9 -382 46 -490 148 -121 114 -174 300 -185 651 0 4
-21 0 -47 -8 -250 -78 -531 -124 -753 -124 -221 0 -503 47 -751 124 l-47 14
-6 -111z m384 -45 c343 -65 647 -53 1019 39 67 17 129 33 137 36 11 4 14 -8
14 -58 1 -148 34 -306 87 -418 100 -210 319 -311 678 -311 l85 0 0 -52 c0 -97
20 -271 60 -518 79 -493 87 -748 35 -1052 -69 -397 -272 -728 -614 -1001 -244
-194 -625 -385 -988 -493 l-93 -28 -92 28 c-469 139 -884 371 -1158 646 -385
386 -526 862 -459 1545 5 55 27 210 49 345 43 265 60 415 60 516 l0 64 93 0
c393 0 609 119 703 389 28 80 54 237 54 327 0 33 3 63 6 66 3 4 54 -7 112 -22
59 -16 154 -38 212 -48z"/>
<path d="M5444 6950 c-15 -23 -35 -40 -45 -40 -11 0 -33 -14 -51 -30 -17 -17
-50 -35 -72 -41 -67 -18 -104 -37 -110 -56 -3 -11 -21 -25 -39 -31 -17 -7 -50
-28 -71 -46 l-39 -33 14 -48 c9 -29 26 -58 46 -76 l33 -28 -48 -21 c-55 -25
-93 -30 -99 -12 -3 7 4 12 15 12 45 0 65 71 32 113 -51 65 -170 9 -170 -81 0
-114 157 -192 251 -123 15 12 29 21 31 21 2 0 3 -17 2 -37 -1 -36 -2 -37 -55
-48 -92 -19 -135 -50 -163 -116 -27 -64 -39 -67 -93 -20 -27 23 -59 63 -73 88
-19 36 -48 64 -120 116 -52 37 -105 72 -116 77 -13 5 -55 4 -107 -4 -81 -12
-86 -14 -132 -60 -44 -45 -46 -50 -40 -89 8 -46 39 -85 73 -92 12 -2 27 -7 32
-10 6 -3 10 2 10 11 0 15 2 16 18 2 35 -31 42 -31 36 0 -7 35 1 42 39 35 31
-6 34 -15 11 -38 -15 -14 -15 -18 0 -40 10 -15 26 -25 40 -25 13 0 29 -6 35
-14 10 -12 8 -19 -8 -35 -24 -24 -25 -45 -9 -157 10 -68 16 -84 33 -92 13 -6
28 -6 38 0 13 7 17 5 17 -9 0 -35 15 -46 40 -33 20 11 25 10 37 -6 7 -10 13
-21 13 -25 0 -3 -30 -9 -67 -13 -57 -6 -79 -3 -135 15 l-67 23 -69 -22 c-48
-16 -93 -22 -153 -22 -139 0 -172 -29 -172 -154 0 -57 25 -86 73 -86 16 0 41
-5 56 -10 27 -11 111 -4 135 11 11 7 10 11 -5 22 -17 12 -17 14 -2 20 11 4 23
-3 38 -23 12 -17 28 -30 35 -30 7 0 13 -7 13 -15 0 -8 4 -15 9 -15 15 0 41 42
41 66 0 11 8 28 18 37 15 14 22 14 72 -4 30 -10 61 -19 69 -19 8 0 30 -19 49
-41 23 -26 59 -52 99 -70 72 -32 78 -49 38 -97 -28 -33 -24 -42 16 -42 47 0
78 18 96 55 9 19 20 35 24 35 4 0 19 -20 33 -43 39 -67 134 -149 230 -198 47
-24 86 -46 85 -49 0 -3 -27 -18 -60 -33 -100 -48 -137 -129 -118 -257 12 -80
23 -111 66 -175 53 -80 44 -117 -54 -225 -27 -30 -54 -64 -60 -74 -8 -15 -41
-27 -124 -48 -63 -15 -122 -28 -132 -28 -38 0 -76 -29 -86 -68 -25 -86 0 -129
96 -172 56 -25 57 -25 50 0 -7 27 19 27 33 0 9 -17 58 -50 75 -50 4 0 5 12 3
27 -2 22 2 28 22 34 43 12 104 9 124 -6 25 -19 70 -19 85 -1 7 8 16 59 20 113
7 86 21 143 36 143 3 0 14 -6 25 -12 17 -11 25 -10 48 3 27 15 30 15 51 -2 27
-22 99 -26 107 -6 2 7 20 13 39 13 48 0 67 20 40 42 -11 9 -32 41 -47 71 l-28
54 40 43 c54 59 51 91 -13 145 -40 34 -32 53 35 84 59 27 88 32 88 13 0 -7 13
-40 28 -73 46 -96 122 -150 272 -195 55 -17 84 -32 111 -59 32 -32 37 -43 42
-106 13 -142 -3 -165 -118 -165 -113 0 -133 -18 -137 -120 -2 -60 -1 -63 32
-90 l35 -29 3 27 c4 34 22 54 22 25 0 -23 43 -63 66 -63 8 0 14 10 14 24 0 38
14 39 54 1 43 -40 56 -43 56 -15 0 13 7 20 19 20 11 0 26 9 34 21 13 18 18 19
37 9 29 -16 67 -5 107 31 19 16 37 29 42 29 5 0 14 14 21 31 12 28 11 36 -13
85 -36 73 -35 77 13 69 33 -6 39 -4 34 8 -4 11 2 16 23 19 15 2 28 7 28 13 0
5 13 17 30 25 16 8 40 31 53 50 l23 35 -57 3 c-55 3 -61 6 -106 53 -30 31 -48
59 -48 74 0 32 -50 80 -121 116 l-59 29 0 57 c0 66 30 233 42 233 5 0 19 -7
32 -15 60 -40 175 -25 226 30 35 38 52 33 44 -12 l-7 -36 39 6 c56 9 89 37 90
77 0 22 8 38 25 50 20 16 24 27 24 70 0 46 -4 55 -33 81 -33 30 -69 37 -103
19 -10 -6 -19 -18 -19 -28 -1 -10 -9 -2 -20 19 -29 56 -127 139 -234 199 -158
89 -206 140 -206 223 0 48 44 128 86 157 41 27 148 40 194 22 l25 -10 -26 -12
c-79 -36 -54 -170 31 -170 10 0 20 -9 23 -20 3 -11 17 -24 31 -30 14 -5 26
-14 26 -20 0 -18 48 -34 63 -21 12 9 17 5 27 -19 15 -37 64 -80 90 -80 11 0
36 15 56 32 l37 32 -32 14 c-34 13 -35 16 -111 195 -65 154 -157 221 -305 221
-97 0 -158 -24 -223 -87 -58 -56 -84 -108 -90 -183 -10 -128 44 -211 205 -315
54 -34 115 -76 137 -93 52 -40 96 -103 96 -136 0 -37 -35 -80 -66 -80 -35 0
-99 62 -137 133 -72 136 -179 217 -360 271 -91 28 -140 61 -152 104 -6 19 -3
22 24 22 34 0 37 6 16 34 -17 23 -19 63 -5 101 l10 26 29 -22 c16 -12 36 -19
43 -17 7 3 21 29 31 57 10 28 23 51 28 51 26 0 70 45 98 102 34 67 41 139 16
172 -13 17 -11 22 21 51 40 38 44 79 15 133 l-17 34 -18 -28 c-17 -25 -19 -26
-29 -9 -7 13 -6 42 2 95 11 65 11 82 -2 113 -15 34 -14 36 4 42 27 9 24 23
-15 81 -30 44 -32 52 -20 69 8 10 14 32 14 47 l0 29 -30 -23 -30 -22 -25 24
-24 23 19 25 c23 28 25 48 9 89 l-10 27 -21 -32 c-22 -36 -30 -39 -47 -18 -9
11 -9 15 1 19 24 8 1 18 -105 44 -99 24 -107 28 -112 54 -6 25 -23 47 -52 63
-8 4 -22 -9 -39 -34z m54 -12 c7 -7 12 -19 12 -27 0 -32 18 -42 105 -63 81
-19 87 -22 69 -35 -10 -8 -30 -16 -44 -19 -49 -11 -56 -17 -25 -23 20 -4 26
-9 18 -14 -7 -5 -30 -3 -50 2 -21 6 -54 10 -73 10 -24 -1 -15 -5 30 -12 l65
-10 -40 -11 c-40 -12 -40 -12 -12 -19 15 -4 27 -11 27 -16 0 -14 -50 -31 -95
-31 -25 0 -45 -1 -45 -2 0 -2 7 -25 15 -52 21 -69 19 -100 -10 -135 -30 -35
-88 -59 -170 -69 -52 -6 -60 -10 -63 -30 -3 -19 -9 -23 -30 -20 -25 3 -27 7
-26 46 1 49 8 60 29 42 12 -10 15 -9 15 6 0 17 1 17 14 -2 13 -16 18 -17 35
-7 13 8 22 9 26 3 3 -6 13 -10 21 -10 28 0 13 16 -41 43 -51 25 -58 26 -88 13
-17 -7 -52 -30 -75 -50 -34 -28 -53 -36 -83 -36 -69 0 -133 48 -145 108 -6 27
-1 37 29 67 19 19 44 35 55 35 45 0 70 -63 36 -91 -14 -11 -21 -10 -46 4 l-30
17 7 -27 c21 -86 63 -93 190 -32 86 41 99 59 44 59 -46 0 -64 14 -84 65 -9 25
-16 48 -14 50 67 66 126 81 167 43 l25 -23 -12 22 c-16 32 -15 33 29 33 l40 0
-17 -27 -18 -28 37 23 c20 12 58 29 85 37 31 9 61 28 83 51 l35 37 -45 -30
c-59 -40 -99 -51 -193 -55 -73 -3 -78 -2 -75 17 2 15 20 25 72 43 39 12 82 33
96 47 14 14 36 25 48 25 14 0 30 13 44 35 25 39 29 40 46 23z m242 -160 c29
-21 30 -21 50 -3 16 14 20 15 20 4 0 -26 -21 -38 -54 -32 -30 6 -30 6 20 -45
31 -31 60 -52 73 -52 12 0 19 -4 16 -10 -13 -22 -56 -8 -109 36 -31 25 -56 42
-56 39 0 -3 18 -28 40 -56 60 -76 64 -149 9 -149 -14 0 -19 7 -19 30 0 43 -39
80 -83 80 -42 0 -51 -9 -32 -30 8 -9 22 -43 30 -74 18 -69 18 -66 1 -66 -8 0
-25 15 -37 33 -23 33 -48 57 -60 57 -4 0 -7 -42 -6 -92 2 -98 -7 -153 -23
-143 -6 3 -10 27 -11 53 -1 86 -21 7 -22 -91 -2 -88 -2 -89 31 -118 38 -34 39
-39 8 -39 -53 0 -106 72 -106 144 l0 34 -34 -34 c-28 -28 -41 -34 -77 -34
l-44 0 27 25 c29 26 33 38 43 117 5 40 10 47 33 53 15 3 44 17 64 30 50 33 64
81 45 151 l-13 52 42 6 c44 6 114 35 114 47 0 4 -10 10 -22 14 -22 6 -21 7 8
16 17 5 42 22 57 39 32 36 39 37 77 8z m100 -168 c13 0 33 -25 73 -87 6 -10 0
-11 -23 -6 l-31 6 26 -49 c25 -46 25 -54 19 -154 -5 -85 -3 -109 9 -125 15
-20 16 -20 40 3 l25 23 6 -26 c12 -49 -33 -92 -114 -110 l-35 -8 45 -11 c79
-19 86 -85 23 -196 l-26 -44 -14 46 c-8 29 -25 56 -44 73 -37 31 -52 25 -21
-8 16 -17 22 -36 22 -68 0 -43 -38 -169 -51 -169 -12 0 -29 26 -43 66 -8 24
-16 33 -19 24 -2 -8 -14 -45 -27 -83 -14 -42 -20 -79 -16 -97 4 -22 2 -30 -9
-30 -20 0 -28 17 -36 79 -4 29 -12 58 -18 64 -27 27 -81 -79 -81 -158 0 -42
-7 -47 -41 -30 -35 19 -80 83 -130 188 -29 61 -39 75 -39 55 0 -15 -9 -43 -21
-62 -15 -26 -19 -44 -14 -66 6 -27 1 -37 -37 -78 -40 -44 -42 -47 -20 -50 31
-5 28 -20 -5 -24 l-28 -3 30 -17 30 -17 -46 -1 c-75 0 -84 12 -81 119 3 110
-16 163 -74 207 -42 33 -85 36 -244 21 l-85 -8 62 63 c92 95 113 131 112 192
l-2 51 -6 -51 c-3 -27 -15 -63 -25 -80 -23 -35 -136 -154 -146 -154 -4 0 -13
13 -20 30 -13 32 -15 27 36 98 27 37 8 25 -46 -30 -27 -28 -53 -49 -55 -46 -3
3 -1 29 5 58 12 65 7 75 -14 25 -9 -21 -21 -35 -28 -33 -7 3 -18 -2 -25 -11
-6 -9 -14 -14 -16 -11 -3 3 -12 43 -20 90 -17 96 -10 126 28 136 l25 6 -20 25
c-10 13 -16 31 -13 39 3 8 0 14 -6 14 -6 0 -11 7 -11 15 0 8 -9 24 -21 36
l-21 21 21 29 c12 15 21 34 21 41 0 7 -10 1 -21 -14 -28 -38 -80 -39 -114 -2
-15 16 -31 24 -40 20 -9 -3 -24 0 -35 6 -18 12 -18 14 13 41 l32 28 -34 -18
c-18 -10 -39 -26 -45 -35 -11 -18 -36 -25 -36 -10 0 4 18 24 40 46 33 33 47
39 89 42 28 2 51 -1 51 -6 0 -10 -46 -43 -74 -54 -10 -3 -16 -9 -13 -12 9 -10
86 38 102 63 22 32 46 29 102 -15 26 -21 65 -48 85 -60 45 -28 88 -77 88 -101
0 -10 35 -47 78 -83 63 -54 78 -63 80 -48 2 11 12 22 22 25 10 3 22 19 25 36
10 43 49 85 98 103 23 9 88 22 145 30 56 8 114 21 127 30 l25 16 -7 -47 c-7
-56 -17 -71 -57 -88 l-30 -13 32 -16 c41 -21 80 -20 118 3 l32 19 6 -40 c12
-76 74 -113 154 -92 26 8 29 24 4 24 -35 0 -65 46 -70 104 -4 51 -3 54 15 50
29 -8 36 15 42 135 l6 104 25 -38 c35 -53 57 -65 75 -41 9 12 11 25 6 35 -5 9
-12 35 -16 58 -4 24 -11 45 -16 49 -19 11 -9 25 14 18 37 -11 57 -35 63 -76 6
-32 11 -38 30 -38 27 0 64 32 64 55 0 9 -7 32 -15 52 -19 46 -19 47 7 29 12
-9 29 -16 38 -16z m555 -754 c67 -37 107 -93 166 -233 27 -65 59 -126 71 -136
18 -15 20 -20 7 -28 -23 -14 -47 -11 -68 10 -20 20 -50 105 -52 145 -1 13 -5
8 -13 -16 -24 -80 -62 -76 -53 6 4 44 4 48 -6 26 -22 -47 -28 -52 -42 -40 -10
8 -11 18 -4 36 5 14 9 33 9 42 0 13 -3 12 -16 -6 -24 -35 -79 -27 -95 14 -20
53 37 104 83 75 18 -11 19 -9 16 15 -4 39 -54 65 -132 71 -76 7 -125 -8 -172
-50 -50 -43 -76 -100 -77 -166 -1 -96 42 -147 189 -230 189 -106 253 -172 275
-282 13 -64 26 -72 59 -39 23 23 25 45 5 80 -20 36 -19 40 15 40 43 0 72 -35
68 -85 -3 -35 -7 -42 -42 -59 -34 -17 -37 -21 -22 -31 22 -17 20 -41 -6 -59
-29 -20 -52 -21 -44 -1 9 25 -4 43 -35 50 -24 6 -33 2 -50 -19 -29 -37 -71
-56 -124 -56 -56 0 -94 19 -132 64 l-28 34 0 -51 c0 -29 -8 -97 -18 -152 -12
-63 -16 -118 -12 -150 6 -48 8 -51 50 -68 24 -10 63 -32 85 -48 36 -27 40 -33
40 -74 0 -36 4 -45 17 -45 9 0 36 -20 59 -45 35 -38 47 -45 79 -45 37 0 38 0
20 -20 -29 -32 -67 -24 -128 26 -30 25 -47 30 -47 15 0 -5 9 -13 20 -16 19 -6
56 -62 48 -71 -3 -2 -19 7 -37 20 -19 14 -40 22 -49 19 -14 -6 -14 -8 2 -17
10 -6 28 -19 40 -29 21 -17 21 -17 -9 -15 -26 3 -30 -1 -33 -24 -2 -14 7 -45
18 -69 l22 -42 -37 6 c-41 7 -39 13 -18 -71 12 -50 -69 -86 -100 -42 -13 18
-14 18 -31 -10 -19 -33 -36 -39 -36 -13 0 22 -29 53 -51 53 -10 0 -25 -7 -34
-16 -15 -15 -17 -15 -34 0 -22 20 -50 21 -57 1 -9 -22 -19 -18 -32 10 -8 17
-20 25 -37 25 -31 0 -32 19 -4 51 13 16 22 20 25 12 4 -9 12 -9 30 3 16 11 35
14 59 10 24 -5 47 -1 79 14 25 11 50 20 57 20 8 0 8 4 1 13 -5 6 -10 51 -11
98 0 47 -5 99 -11 115 -23 59 -80 100 -174 123 -73 18 -158 65 -198 109 -49
54 -82 145 -68 185 5 17 9 60 9 96 -1 49 -3 58 -8 32 l-6 -34 -25 36 c-44 61
-98 96 -306 197 -171 83 -211 108 -266 159 -61 57 -125 151 -111 165 3 3 17 6
29 6 14 0 25 8 29 20 7 21 24 24 88 14 20 -4 37 -12 37 -20 0 -21 51 -54 85
-54 45 0 95 11 95 21 0 4 -9 11 -21 14 l-21 7 23 24 22 24 -26 0 c-36 0 -34 9
8 50 33 32 35 39 29 73 -4 29 -2 43 12 58 17 19 18 18 52 -48 18 -37 48 -83
65 -101 38 -40 86 -67 97 -55 5 4 13 38 18 75 11 73 30 119 50 126 8 2 12 -7
12 -26 0 -49 50 -192 78 -223 21 -23 50 -37 122 -58 180 -53 274 -122 354
-261 92 -159 187 -193 240 -86 39 81 -12 153 -194 271 -129 85 -192 143 -216
201 -20 48 -17 150 5 201 26 57 92 118 154 143 75 29 185 24 252 -14z m-1908
-75 c40 -19 45 -19 267 2 l226 21 43 -30 c58 -41 77 -83 77 -171 l0 -73 -27 1
c-52 2 -77 14 -83 39 -3 14 -18 31 -32 38 -27 12 -58 7 -58 -10 0 -5 4 -7 10
-3 5 3 21 3 35 -1 19 -5 25 -13 25 -33 0 -41 -21 -62 -68 -68 -42 -6 -54 -16
-29 -27 8 -3 7 -8 -5 -16 -10 -6 -18 -18 -18 -25 0 -16 -34 -55 -48 -55 -4 0
-8 23 -7 51 0 57 3 53 -86 94 -37 16 -65 38 -80 60 -13 20 -35 38 -49 41 -14
2 -45 11 -70 19 -60 20 -83 19 -105 -5 -10 -12 -25 -18 -32 -16 -7 3 -15 1
-18 -4 -11 -17 -43 -11 -50 10 -7 22 -16 25 -30 11 -13 -12 -97 -17 -114 -7
-7 5 -38 10 -68 11 -61 4 -72 10 -55 27 7 7 12 22 12 35 0 22 31 63 48 63 5 0
6 -21 2 -47 -7 -41 -6 -44 6 -28 8 10 12 26 9 36 -6 17 7 31 38 42 11 4 16 3
12 -4 -5 -7 4 -8 27 -5 116 19 151 27 166 35 27 16 83 12 129 -8z m913 -701
c143 -72 220 -150 220 -222 0 -33 -10 -42 -60 -57 -64 -19 -118 -48 -130 -70
-13 -26 -3 -49 37 -87 18 -17 33 -40 33 -50 0 -11 -25 -45 -56 -76 -56 -57
-56 -57 -30 -64 31 -8 56 -44 31 -44 -9 0 -26 5 -38 12 -42 22 2 -21 50 -49
24 -13 43 -27 43 -30 0 -10 -76 9 -107 27 -40 23 -41 19 -6 -27 l27 -36 -24 8
c-14 4 -35 16 -47 27 -21 19 -22 20 -52 2 -35 -20 -51 -12 -33 16 16 27 -1 26
-39 -1 -45 -32 -62 -74 -63 -154 -1 -42 -5 -69 -11 -66 -5 2 -15 6 -22 8 -7 3
-25 -4 -40 -14 -59 -41 -99 -39 -83 3 14 36 -4 29 -21 -8 -19 -43 -34 -45 -55
-9 -25 41 -41 45 -70 16 -14 -14 -27 -25 -29 -25 -3 0 -5 18 -5 40 0 30 7 47
25 65 17 18 20 25 9 25 -8 0 -26 -11 -40 -25 -29 -29 -64 -49 -64 -37 0 4 13
21 30 37 16 16 28 31 25 34 -3 2 -18 -8 -33 -23 -27 -25 -30 -26 -56 -12 -28
14 -28 14 -8 34 11 11 35 23 53 26 19 4 72 15 119 26 47 10 108 22 135 26 28
4 42 9 33 11 -10 3 -18 8 -18 13 0 4 30 43 66 86 106 125 113 162 50 258 -87
133 -87 296 0 362 26 20 133 72 152 74 1 0 47 -23 102 -50z"/>
<path d="M5290 2464 c0 -108 4 -193 10 -205 28 -51 156 -71 208 -32 41 31 52
61 52 151 l0 82 -35 0 -34 0 -3 -87 -3 -87 -35 -9 c-22 -5 -47 -4 -63 2 l-27
11 0 180 0 180 -35 0 -35 0 0 -186z"/>
<path d="M5600 2442 c0 -211 2 -217 73 -253 51 -27 125 -29 161 -6 25 17 26
21 26 117 0 93 -1 100 -20 102 -11 0 -26 1 -32 2 -9 1 -15 -25 -18 -84 l-5
-85 -39 2 c-22 2 -50 10 -63 18 -23 15 -23 18 -23 189 0 149 -2 175 -16 180
-44 17 -44 16 -44 -182z"/>
<path d="M5144 2610 c-12 -5 -25 -13 -29 -19 -4 -8 -12 -8 -25 -1 -11 6 -34 7
-57 2 -34 -7 -38 -11 -41 -41 -3 -32 -2 -33 30 -29 28 2 33 -1 36 -19 2 -13 9
-23 15 -23 31 0 57 14 57 30 0 22 25 44 40 35 5 -3 10 -30 10 -59 l0 -53 -72
-13 c-95 -16 -126 -33 -145 -78 -22 -54 -13 -139 18 -165 51 -41 221 0 253 62
13 23 16 63 16 181 0 147 -1 152 -25 175 -25 26 -45 30 -81 15z m36 -300 c0
-60 -17 -72 -100 -74 l-55 -1 0 50 0 50 50 11 c28 7 62 13 78 13 26 1 27 -1
27 -49z"/>
</g>
</svg>
